<svg height="512" viewBox="0 0 64 64" width="512" xmlns="http://www.w3.org/2000/svg" xmlns:xlink="http://www.w3.org/1999/xlink"><linearGradient id="New_Gradient_Swatch_3" gradientUnits="userSpaceOnUse" x1="11" x2="11" y1="64.72" y2="4.742"><stop offset="0" stop-color="#006df0"/><stop offset="1" stop-color="#00e7f0"/></linearGradient><linearGradient id="New_Gradient_Swatch_3-2" x1="15" x2="15" xlink:href="#New_Gradient_Swatch_3" y1="64.72" y2="4.742"/><linearGradient id="New_Gradient_Swatch_3-3" x1="19" x2="19" xlink:href="#New_Gradient_Swatch_3" y1="64.72" y2="4.742"/><linearGradient id="New_Gradient_Swatch_3-4" x1="17" x2="17" xlink:href="#New_Gradient_Swatch_3" y1="64.72" y2="4.742"/><linearGradient id="New_Gradient_Swatch_3-5" x1="33" x2="33" xlink:href="#New_Gradient_Swatch_3" y1="64.72" y2="4.742"/><linearGradient id="New_Gradient_Swatch_3-6" x1="25" x2="25" xlink:href="#New_Gradient_Swatch_3" y1="64.72" y2="4.742"/><linearGradient id="New_Gradient_Swatch_3-7" x1="28" x2="28" xlink:href="#New_Gradient_Swatch_3" y1="64.72" y2="4.742"/><linearGradient id="New_Gradient_Swatch_3-8" x1="32" x2="32" xlink:href="#New_Gradient_Swatch_3" y1="64.72" y2="4.72"/><g id="Layout_design" data-name="Layout design"><path d="m10 15h2v2h-2z" fill="url(#New_Gradient_Swatch_3)"/><path d="m14 15h2v2h-2z" fill="url(#New_Gradient_Swatch_3-2)"/><path d="m18 15h2v2h-2z" fill="url(#New_Gradient_Swatch_3-3)"/><path d="m23 36h-12a1 1 0 0 1 -1-1v-12a1 1 0 0 1 1-1h12a1 1 0 0 1 1 1v12a1 1 0 0 1 -1 1zm-11-2h10v-10h-10z" fill="url(#New_Gradient_Swatch_3-4)"/><path d="m39 36h-12a1 1 0 0 1 -1-1v-12a1 1 0 0 1 1-1h12a1 1 0 0 1 1 1v12a1 1 0 0 1 -1 1zm-11-2h10v-10h-10z" fill="url(#New_Gradient_Swatch_3-5)"/><path d="m39 44h-28a1 1 0 0 1 -1-1v-4a1 1 0 0 1 1-1h28a1 1 0 0 1 1 1v4a1 1 0 0 1 -1 1zm-27-2h26v-2h-26z" fill="url(#New_Gradient_Swatch_3-6)"/><path d="m45 54h-34a1 1 0 0 1 -1-1v-6a1 1 0 0 1 1-1h34a1 1 0 0 1 1 1v6a1 1 0 0 1 -1 1zm-33-2h32v-4h-32z" fill="url(#New_Gradient_Swatch_3-7)"/><path d="m55 2a7 7 0 0 0 -6.92 6h-45.08a1 1 0 0 0 -1 1v52a1 1 0 0 0 1 1h52a7.01 7.01 0 0 0 7-7v-46a7.008 7.008 0 0 0 -7-7zm-7 40h-4v-2h4zm0-8h-4v-10h4zm0-16h-40v-3a1 1 0 0 1 1-1h39zm-40 2h40v2h-5a1 1 0 0 0 -1 1v12a1 1 0 0 0 1 1h5v2h-5a1 1 0 0 0 -1 1v4a1 1 0 0 0 1 1h5v9a1 1 0 0 0 2 0 5 5 0 0 1 6-4.9v6.9a1 1 0 0 1 -1 1h-46a1 1 0 0 1 -1-1zm52 35a5.008 5.008 0 0 1 -5 5h-51v-50h44v2h-39a3 3 0 0 0 -3 3v40a3 3 0 0 0 3 3h46a3 3 0 0 0 3-3v-5.974a4.977 4.977 0 0 1 2 3.974zm0-6.886a6.979 6.979 0 0 0 -10 0v-39.114a5 5 0 0 1 10 0z" fill="url(#New_Gradient_Swatch_3-8)"/></g></svg>