<?xml version="1.0" encoding="iso-8859-1"?>
<!-- Generator: Adobe Illustrator 19.0.0, SVG Export Plug-In . SVG Version: 6.00 Build 0)  -->
<svg version="1.1" id="Capa_1" xmlns="http://www.w3.org/2000/svg" xmlns:xlink="http://www.w3.org/1999/xlink" x="0px" y="0px"
	 viewBox="0 0 476.912 476.912" style="enable-background:new 0 0 476.912 476.912;" xml:space="preserve">
<linearGradient id="SVGID_1_" gradientUnits="userSpaceOnUse" x1="-28.4191" y1="555.4466" x2="-28.4191" y2="617.4676" gradientTransform="matrix(8 0 0 -8 465.8086 4913.2041)">
	<stop  offset="0" style="stop-color:#006DF0"/>
	<stop  offset="1" style="stop-color:#00E7F0"/>
</linearGradient>
<path style="fill:url(#SVGID_1_);" d="M406.456,476.912h-112c-8.837,0-16-7.163-16-16v-128h-80v128c0,8.837-7.163,16-16,16h-112
	c-8.837,0-16-7.163-16-16v-224h-28.2c-8.837,0-16-7.163-16-16c0-4.342,1.764-8.497,4.888-11.512l212.2-204.88
	c6.183-6.026,16.042-6.026,22.224,0l212.208,204.888c6.353,6.141,6.525,16.271,0.384,22.624c-3.015,3.119-7.166,4.88-11.504,4.88
	h-28.2v224C422.456,469.748,415.292,476.912,406.456,476.912z M198.456,316.912h80c8.837,0,16,7.163,16,16v128h112v-224
	c0-8.837,7.163-16,16-16h28.28l-212.28-204.88l-212.2,204.88h28.2c8.837,0,16,7.163,16,16v224h112v-128
	C182.456,324.075,189.619,316.912,198.456,316.912z"/>
<g>
</g>
<g>
</g>
<g>
</g>
<g>
</g>
<g>
</g>
<g>
</g>
<g>
</g>
<g>
</g>
<g>
</g>
<g>
</g>
<g>
</g>
<g>
</g>
<g>
</g>
<g>
</g>
<g>
</g>
</svg>
