<svg height="512" viewBox="0 0 64 64" width="512" xmlns="http://www.w3.org/2000/svg" xmlns:xlink="http://www.w3.org/1999/xlink"><linearGradient id="New_Gradient_Swatch_3" gradientUnits="userSpaceOnUse" x1="31.573" x2="32.418" y1="62.885" y2="-2.155"><stop offset="0" stop-color="#006df0"/><stop offset="1" stop-color="#00e7f0"/></linearGradient><linearGradient id="New_Gradient_Swatch_3-2" x1="53.777" x2="54.622" xlink:href="#New_Gradient_Swatch_3" y1="63.174" y2="-1.866"/><linearGradient id="New_Gradient_Swatch_3-3" x1="13.264" x2="14.109" xlink:href="#New_Gradient_Swatch_3" y1="62.648" y2="-2.393"/><linearGradient id="New_Gradient_Swatch_3-4" x1="17.264" x2="18.108" xlink:href="#New_Gradient_Swatch_3" y1="62.7" y2="-2.341"/><linearGradient id="New_Gradient_Swatch_3-5" x1="21.263" x2="22.108" xlink:href="#New_Gradient_Swatch_3" y1="62.752" y2="-2.289"/><linearGradient id="New_Gradient_Swatch_3-6" x1="19.971" x2="20.816" xlink:href="#New_Gradient_Swatch_3" y1="62.735" y2="-2.306"/><linearGradient id="New_Gradient_Swatch_3-7" x1="24.97" x2="25.815" xlink:href="#New_Gradient_Swatch_3" y1="62.8" y2="-2.241"/><linearGradient id="New_Gradient_Swatch_3-8" x1="29.969" x2="30.814" xlink:href="#New_Gradient_Swatch_3" y1="62.865" y2="-2.176"/><linearGradient id="New_Gradient_Swatch_3-9" x1="42.245" x2="43.089" xlink:href="#New_Gradient_Swatch_3" y1="63.024" y2="-2.016"/><linearGradient id="New_Gradient_Swatch_3-10" x1="31.469" x2="32.314" xlink:href="#New_Gradient_Swatch_3" y1="62.884" y2="-2.156"/><g id="Search"><path d="m59 10h-4v-5a3 3 0 0 0 -3-3h-40a3 3 0 0 0 -3 3v5h-4a3 3 0 0 0 -3 3v34a3 3 0 0 0 3 3h20v4h-4a3 3 0 0 0 -3 3v4a1 1 0 0 0 1 1h26a1 1 0 0 0 1-1v-4a3 3 0 0 0 -3-3h-4v-4h20a3 3 0 0 0 3-3v-34a3 3 0 0 0 -3-3zm-6 24a1 1 0 0 1 -1 1h-40a1 1 0 0 1 -1-1v-24h42zm-41 3h40a3 3 0 0 0 3-3v-19h2v24h-50v-24h2v19a3 3 0 0 0 3 3zm0-33h40a1 1 0 0 1 1 1v3h-42v-3a1 1 0 0 1 1-1zm-7 8h4v1h-3a1 1 0 0 0 -1 1v26a1 1 0 0 0 1 1h52a1 1 0 0 0 1-1v-26a1 1 0 0 0 -1-1h-3v-1h4a1 1 0 0 1 1 1v29h-56v-29a1 1 0 0 1 1-1zm38 44a1 1 0 0 1 1 1v3h-24v-3a1 1 0 0 1 1-1zm-6-2h-10v-4h10zm22-6h-54a1 1 0 0 1 -1-1v-3h56v3a1 1 0 0 1 -1 1z" fill="url(#New_Gradient_Swatch_3)"/><path d="m55 45h-2a1 1 0 0 0 0 2h2a1 1 0 0 0 0-2z" fill="url(#New_Gradient_Swatch_3-2)"/><path d="m13 5h2v2h-2z" fill="url(#New_Gradient_Swatch_3-3)"/><path d="m17 5h2v2h-2z" fill="url(#New_Gradient_Swatch_3-4)"/><path d="m21 5h2v2h-2z" fill="url(#New_Gradient_Swatch_3-5)"/><path d="m20 23h1a1 1 0 0 0 0-2h-1a1 1 0 0 0 0 2z" fill="url(#New_Gradient_Swatch_3-6)"/><path d="m25 23h1a1 1 0 0 0 0-2h-1a1 1 0 0 0 0 2z" fill="url(#New_Gradient_Swatch_3-7)"/><path d="m30 23h1a1 1 0 0 0 0-2h-1a1 1 0 0 0 0 2z" fill="url(#New_Gradient_Swatch_3-8)"/><path d="m42 24a2.951 2.951 0 0 0 1.285-.3l1.543 1.544a1 1 0 0 0 1.414-1.414l-1.542-1.545a2.965 2.965 0 0 0 .3-1.285 3 3 0 1 0 -3 3zm0-4a1 1 0 1 1 -1 1 1 1 0 0 1 1-1z" fill="url(#New_Gradient_Swatch_3-9)"/><path d="m19 29h26a5.006 5.006 0 0 0 5-5v-4a5.006 5.006 0 0 0 -5-5h-26a5.006 5.006 0 0 0 -5 5v4a5.006 5.006 0 0 0 5 5zm29-9v4a3 3 0 0 1 -3 3h-7v-10h7a3 3 0 0 1 3 3zm-32 0a3 3 0 0 1 3-3h17v10h-17a3 3 0 0 1 -3-3z" fill="url(#New_Gradient_Swatch_3-10)"/></g></svg>